<?xml version="1.0" encoding="UTF-8"?>
<svg width="180px" height="40px" viewBox="0 0 180 40" version="1.1" xmlns="http://www.w3.org/2000/svg" xmlns:xlink="http://www.w3.org/1999/xlink">
    <!-- Generator: Sketch 51.2 (57519) - http://www.bohemiancoding.com/sketch -->
    <title>Logo Copy</title>
    <desc>Created with Sketch.</desc>
    <defs></defs>
    <g id="Page-1" stroke="none" stroke-width="1" fill="none" fill-rule="evenodd">
        <g id="Main_1440" transform="translate(-120.000000, -48.000000)" fill="#FFFFFF">
            <g id="Logo-Copy" transform="translate(120.000000, 48.000000)">
                <path d="M77.2194282,19.5036061 C77.2194282,22.6290191 77.2329225,25.7546607 77.2077637,28.879845 C77.2027319,29.4918907 77.3301271,29.7640635 78.0144473,29.7400483 C79.4231131,29.6908742 80.8349809,29.7496544 82.2445616,29.7196925 C84.4457306,29.6730343 86.3662643,28.120277 86.6503304,25.9330597 C87.1949047,21.7356518 87.0972427,17.5066811 86.7093393,13.308587 C86.5357433,11.4296798 85.2876366,10.1134155 83.3707624,9.5747878 C81.6892376,9.1020305 79.9734053,9.44990851 78.2809022,9.30924778 C77.4437992,9.23971792 77.1789454,9.47392376 77.1963278,10.3565413 C77.2562516,13.4044193 77.2194282,16.4543558 77.2194282,19.5036061 M67.2119314,19.4827929 C67.2119314,13.6555502 67.2320584,7.8283075 67.1908895,2.00129352 C67.1844854,1.10541042 67.4125159,0.859997459 68.3180051,0.868231258 C73.3831639,0.913974587 78.4563278,0.715905972 83.5121093,0.936388818 C89.1849682,1.18408895 93.6470013,3.6155756 96.0718551,9.05697332 C96.5720584,10.179972 96.7678399,11.3832503 96.8892884,12.5618272 C97.2749047,16.3063761 97.2842821,20.0804295 97.0868996,23.8286379 C96.9462389,26.4995909 96.8190724,29.2304676 95.2734053,31.6530343 C92.9995044,35.2175832 89.8281194,37.2742033 85.6764549,37.9434282 C84.2780813,38.1689428 82.8863405,38.1501881 81.4875095,38.1520178 C77.1837484,38.1577357 72.8788437,38.0984981 68.577141,38.1895273 C67.3585388,38.2151436 67.1764803,37.8267827 67.1867726,36.7355756 C67.2407497,30.984953 67.2121601,25.2336442 67.2119314,19.4827929" id="Fill-3"></path>
                <path d="M36.2619949,1.94797967 C36.2567344,1.10698856 36.446798,0.846022872 37.3230114,0.86797967 C39.8741169,0.93202033 42.4307116,0.958551461 44.9795299,0.85905972 C46.0700508,0.816289708 46.1855527,1.21494282 46.182122,2.1435324 C46.1496442,10.9447776 46.1770902,19.7464803 46.1411817,28.5477255 C46.1375222,29.4596188 46.3017408,29.7644981 47.2941423,29.7523761 C52.1324142,29.6935959 56.9718297,29.7505464 61.8103304,29.7034307 C62.6936341,29.6947395 62.8891868,29.9563914 62.8647141,30.792122 C62.8036468,32.8860229 62.8093647,34.9835832 62.8624269,37.0779416 C62.8827827,37.8802795 62.7432656,38.1821855 61.8306861,38.1776112 C53.6389708,38.1364422 45.4470267,38.1410165 37.2553113,38.1730368 C36.4355909,38.1762389 36.2599365,37.9333418 36.2640534,37.153418 C36.2967598,31.2861499 36.2818933,25.4184244 36.2818933,19.5506989 C36.2936341,11.7270648 36.2870013,5.85949174 36.2619949,1.94797967 Z" id="Fill-11"></path>
                <path d="M10.2212554,19.5461474 C10.2230851,21.8552706 10.1178755,24.1694257 10.628371,26.4495019 C11.1390953,28.7300356 13.0639746,30.2601499 15.4991207,30.138244 C17.7721067,30.0245718 19.8371893,28.6630216 20.1557916,26.1931105 C20.7300991,21.7386252 20.7591461,17.2942033 20.1438983,12.8447497 C19.7818399,10.2259441 17.8599339,9.06726557 15.4707598,8.94215756 C13.2675324,8.82665565 11.1141652,10.1168463 10.6153342,12.635474 C10.1611029,14.9290445 10.2297179,17.2361093 10.2212554,19.5461474 M0.00791359593,20.0076976 C0.00288182973,16.5035299 0.00768487929,13.3849784 0.838841169,10.3153723 C2.12834562,5.55440661 5.42781194,2.84617281 9.88023888,1.35059466 C13.7919797,0.0366175349 17.773479,0.129476493 21.6058551,1.58594409 C26.0155121,3.26175095 29.0396036,6.31740534 30.1452198,11.0715095 C30.5159695,12.6656645 30.6660076,14.290925 30.69231,15.8857662 C30.7728183,20.750798 31.1717001,25.6714079 29.4082948,30.3738221 C28.3966811,33.0717637 26.4105057,34.9783456 23.9902262,36.3746607 C19.0622973,39.2178374 13.7853469,39.373136 8.6437967,37.3473926 C4.07678272,35.5483075 1.12382211,32.0789047 0.405423126,26.9858424 C0.0602897078,24.5399466 -0.0298246506,22.0940508 0.00791359593,20.0076976" id="Fill-8"></path>
                <path d="M159.325891,19.7223964 C159.338013,21.697136 159.313311,23.6695883 159.498572,25.6447853 C159.749474,28.3198551 161.031202,30.0375172 163.409626,30.5788895 C165.544696,31.0646836 168.532651,30.1367802 169.249677,27.3414053 C169.589093,26.0189657 169.851202,24.6775426 169.856691,23.3384066 C169.869728,20.2287751 170.113997,17.105878 169.649931,14.0095121 C169.369067,12.1356366 169.043375,10.3059034 167.051482,9.29360356 C164.429703,7.9613291 160.41321,8.90318424 159.734836,12.4583558 C159.276717,14.8582795 159.27077,17.2899949 159.325891,19.7223964 M179.815929,19.7786607 C179.846806,22.7350521 179.929372,25.7117992 179.212117,28.5982033 C177.88213,33.9501728 174.279385,37.1455731 169.093921,38.5604142 C165.232041,39.6141118 161.313667,39.4700203 157.672041,37.7454968 C153.266272,35.6586861 150.341901,32.3729428 149.713616,27.2462592 C149.24955,23.4571105 149.229652,19.6729936 149.367797,15.8950521 C149.457682,13.4395502 149.534302,10.90354 150.627339,8.59052859 C152.523858,4.57700889 155.687009,2.04763151 159.928559,0.907250318 C164.92739,-0.436917408 169.697276,0.168266836 173.985255,3.15301906 C177.13537,5.34549682 178.98706,8.40435324 179.476742,12.2852173 C179.791914,14.7814307 179.825764,17.2755858 179.815929,19.7786607" id="Fill-5"></path>
                <path d="M112.6569,19.5407726 C112.6569,25.3664142 112.641347,31.1920559 112.674053,37.0174689 C112.678856,37.8628056 112.536595,38.2074816 111.574841,38.180493 C108.911665,38.105474 106.244371,38.1260584 103.580051,38.1724879 C102.819339,38.1855248 102.637967,37.9513189 102.639339,37.2155375 C102.661525,25.4121576 102.662668,13.6085489 102.63751,1.805169 C102.635909,1.02684625 102.889784,0.863771283 103.609555,0.874292249 C106.274333,0.912945362 108.940712,0.927583227 111.604574,0.867888183 C112.473469,0.848447268 112.68183,1.10209403 112.676569,1.94994663 C112.639288,7.81332656 112.6569,13.6771639 112.6569,19.5407726" id="Fill-13"></path>
                <path d="M135.148803,24.7966353 C135.148803,20.5678933 135.180137,16.3386938 135.125245,12.1108666 C135.112666,11.137906 135.412056,10.9066734 136.339273,10.932061 C138.699629,10.9965591 141.062958,10.9746023 143.424457,10.9402948 C144.117926,10.9302313 144.435156,11.0498501 144.43264,11.8569911 C144.405194,20.5429632 144.408168,29.2289352 144.429438,37.9149072 C144.431268,38.6307903 144.191116,38.8187954 143.506795,38.8091893 C141.030938,38.7746531 138.553936,38.7671055 136.078307,38.8121626 C135.302729,38.8263431 135.128219,38.5562287 135.13325,37.825479 C135.164584,33.4828361 135.148803,29.1397357 135.148803,24.7966353" id="Fill-15"></path>
                <path d="M124.135731,38.1557687 C122.880305,38.1557687 121.624422,38.1340407 120.369911,38.1658323 C119.82305,38.179784 119.63756,37.9915502 119.642363,37.4474333 C119.663177,35.2032656 119.665464,32.9584117 119.640534,30.7144727 C119.63413,30.1287294 119.815044,29.9169377 120.420229,29.9237992 C122.854689,29.9517027 125.289606,29.953075 127.723837,29.9233418 C128.330165,29.9160229 128.504676,30.1161499 128.4969,30.706925 C128.46831,32.9128971 128.464422,35.119784 128.498958,37.325756 C128.508793,37.9627319 128.334968,38.196709 127.673062,38.169263 C126.495629,38.1207751 125.314994,38.1557687 124.135731,38.1557687" id="Fill-17"></path>
                <path d="M139.785438,7.02601525 C138.528183,7.02601525 137.270241,7.00154257 136.013901,7.03653621 C135.405515,7.05346125 135.115502,6.91760356 135.132656,6.22573571 C135.17474,4.51241931 135.174053,2.79658704 135.132427,1.08304193 C135.115959,0.403753494 135.385845,0.249598475 136.003151,0.255545108 C138.517433,0.280246506 141.032402,0.279789072 143.546684,0.255773825 C144.154384,0.249827192 144.449199,0.381796696 144.432961,1.07229225 C144.392478,2.78583736 144.393621,4.50144091 144.432046,6.21498602 C144.447141,6.89152986 144.180229,7.05643456 143.556976,7.03745108 C142.300864,6.99902668 141.042694,7.02601525 139.785438,7.02601525" id="Fill-19"></path>
            </g>
        </g>
    </g>
</svg>